<svg
  xmlns="http://www.w3.org/2000/svg"
  xmlnsXlink="http://www.w3.org/1999/xlink"
  version="1.1"
  x="0px"
  y="0px"
  viewBox="0 0 100 125"
  style="enable-background:new 0 0 0 0;" xmlSpace="preserve"
>
    <g>
      <path fill="#83d8ce" d="M51,19c-18.2,0-33,14.8-33,33s14.8,33,33,33s33-14.8,33-33S69.2,19,51,19z M51,81c-16,0-29-13-29-29s13-29,29-29   s29,13,29,29S67,81,51,81z"/>
      <path fill="#83d8ce" d="M64.3,43.3L45.8,61.7c-0.1,0.1-0.3,0.1-0.4,0l-7.7-7.7c-0.8-0.8-2-0.8-2.8,0c-0.8,0.8-0.8,2,0,2.8l7.7,7.7   c0.8,0.8,1.9,1.3,3,1.3c1.2,0,2.2-0.4,3-1.3l18.5-18.5c0.8-0.8,0.8-2,0-2.8S65.1,42.5,64.3,43.3z"/>
    </g>
</svg>